<svg width="402" height="402" viewBox="0 0 402 402" fill="none" xmlns="http://www.w3.org/2000/svg">
<rect x="11.1475" y="54.1149" width="59.2246" height="243.479" rx="4.50552" transform="rotate(-37.8515 11.1475 54.1149)" fill="#C5D5D8"/>
<rect x="172.2" y="230.439" width="19.7415" height="36.1928" transform="rotate(-37.8515 172.2 230.439)" fill="#D9D9D9"/>
<rect x="141.913" y="191.468" width="19.7415" height="23.0318" transform="rotate(-37.8515 141.913 191.468)" fill="white"/>
<rect x="57.1113" y="82.3562" width="19.7415" height="98.7076" rx="0.592084" transform="rotate(-37.8515 57.1113 82.3562)" fill="white"/>
<rect x="71.251" y="100.54" width="19.7415" height="8.30112" transform="rotate(-37.8515 71.251 100.54)" fill="#A72180"/>
<rect x="92.127" y="127.406" width="19.7415" height="8.74545" transform="rotate(-37.8515 92.127 127.406)" fill="#A72180"/>
<path d="M69.692 101.719L69.1382 101.007C69.1933 100.956 69.2363 100.901 69.2673 100.842C69.2989 100.783 69.3173 100.722 69.3224 100.657C69.3289 100.593 69.3209 100.527 69.2982 100.459C69.2763 100.391 69.2392 100.323 69.1868 100.256C69.0952 100.138 68.989 100.06 68.8682 100.023C68.7481 99.9869 68.6182 99.9892 68.4785 100.03C68.3395 100.072 68.195 100.151 68.0451 100.268C67.8868 100.391 67.7705 100.515 67.6963 100.64C67.6235 100.766 67.5916 100.89 67.6005 101.012C67.6103 101.135 67.6594 101.252 67.7477 101.366C67.7981 101.431 67.8513 101.483 67.9072 101.522C67.964 101.56 68.0227 101.586 68.0833 101.6C68.1439 101.613 68.2053 101.615 68.2674 101.605C68.331 101.594 68.3939 101.572 68.456 101.537L69.0047 102.253C68.8887 102.33 68.7532 102.386 68.5982 102.421C68.4442 102.456 68.2811 102.462 68.1092 102.439C67.9388 102.416 67.7689 102.355 67.5995 102.257C67.4301 102.159 67.2718 102.016 67.1245 101.826C66.9399 101.589 66.8253 101.336 66.7806 101.068C66.7365 100.801 66.7709 100.536 66.8838 100.273C66.9973 100.01 67.1972 99.7677 67.4835 99.5451C67.7716 99.3213 68.0574 99.1884 68.3408 99.1464C68.6251 99.1037 68.8911 99.1375 69.1388 99.2476C69.3873 99.3571 69.6019 99.528 69.7826 99.7605C69.9095 99.9239 70.0041 100.092 70.0661 100.264C70.1282 100.436 70.1565 100.607 70.1511 100.777C70.1465 100.947 70.1065 101.112 70.0309 101.272C69.9553 101.432 69.8424 101.581 69.692 101.719Z" fill="white"/>
<path d="M92.3907 130.097L92.9566 129.657L94.7042 131.906L94.1382 132.345L93.5335 131.567L91.5121 133.138L90.9741 132.446L92.9954 130.875L92.3907 130.097Z" fill="white"/>
<circle cx="203.959" cy="71.2656" r="47.7087" fill="#46E0C2"/>
<circle cx="205.749" cy="134.405" r="83.9015" fill="#46E0C2"/>
<path d="M302.438 170.598C302.438 211.484 259.718 244.629 207.021 244.629C154.323 244.629 111.604 211.484 111.604 170.598C111.604 100.026 154.323 88.3418 207.021 88.3418C259.718 88.3418 302.438 101.503 302.438 170.598Z" fill="#6BFFE2"/>
<path d="M72.498 210.08C72.498 154.657 117.428 109.727 172.851 109.727H245.835C301.258 109.727 346.187 154.657 346.187 210.08C346.187 265.503 301.258 310.433 245.835 310.433H172.851C117.427 310.433 72.498 265.503 72.498 210.08Z" fill="#46E0C2"/>
<path d="M101.333 214.164C101.333 170.03 137.111 134.252 181.246 134.252H231.997C276.131 134.252 311.909 170.03 311.909 214.164C311.909 258.299 276.131 294.077 231.997 294.077H181.246C137.111 294.077 101.333 258.299 101.333 214.164Z" fill="#FFECE6"/>
<path d="M142.398 106.359C119.208 121.145 135.013 148.505 138.723 155.318C145.653 163.274 153.147 172.79 174.158 173.877C197.735 175.097 238.776 165.113 255.332 158.362C271.737 151.674 284.261 142.841 296.677 128.98C309.092 115.12 314.88 84.8373 305.839 92.5222C292.867 103.548 266.547 117.667 235.793 115.222C205.841 112.842 179.483 82.712 142.398 106.359Z" fill="white"/>
<path d="M138.368 97.5948C115.178 112.382 130.983 139.741 134.693 146.554C141.623 154.51 149.117 164.026 170.128 165.113C193.705 166.333 234.746 156.349 251.302 149.599C267.706 142.91 280.231 134.077 292.646 120.217C305.062 106.356 310.849 76.0735 301.808 83.7584C288.837 94.7843 262.517 108.903 231.762 106.459C201.811 104.078 175.452 73.9482 138.368 97.5948Z" fill="#46E0C2"/>
<path d="M200.418 207.014C200.418 228.549 183.813 226.377 162.278 226.377C140.742 226.377 122.432 228.549 122.432 207.014C122.432 185.478 139.89 168.02 161.425 168.02C182.96 168.02 200.418 185.478 200.418 207.014Z" fill="white"/>
<path d="M287.558 207.014C287.558 228.549 270.953 226.377 249.418 226.377C227.882 226.377 209.571 228.549 209.571 207.014C209.571 185.478 227.029 168.02 248.565 168.02C270.1 168.02 287.558 185.478 287.558 207.014Z" fill="white"/>
<path d="M163.289 221.875C171.985 221.875 179.035 214.825 179.035 206.129C179.035 197.434 171.985 190.384 163.289 190.384C154.593 190.384 147.544 197.434 147.544 206.129C147.544 214.825 154.593 221.875 163.289 221.875Z" fill="#160707"/>
<path d="M162.652 198.652C163.968 198.652 165.036 197.585 165.036 196.268C165.036 194.951 163.968 193.883 162.652 193.883C161.335 193.883 160.268 194.951 160.268 196.268C160.268 197.585 161.335 198.652 162.652 198.652Z" fill="white"/>
<path d="M157.655 205.705C159.376 205.705 160.771 204.309 160.771 202.587C160.771 200.866 159.376 199.47 157.655 199.47C155.933 199.47 154.538 200.866 154.538 202.587C154.538 204.309 155.933 205.705 157.655 205.705Z" fill="white"/>
<path d="M245.225 221.875C253.921 221.875 260.97 214.825 260.97 206.129C260.97 197.434 253.921 190.384 245.225 190.384C236.529 190.384 229.479 197.434 229.479 206.129C229.479 214.825 236.529 221.875 245.225 221.875Z" fill="#160707"/>
<path d="M244.592 198.652C245.909 198.652 246.976 197.585 246.976 196.268C246.976 194.951 245.909 193.883 244.592 193.883C243.275 193.883 242.208 194.951 242.208 196.268C242.208 197.585 243.275 198.652 244.592 198.652Z" fill="white"/>
<path d="M239.597 205.705C241.318 205.705 242.713 204.309 242.713 202.587C242.713 200.866 241.318 199.47 239.597 199.47C237.876 199.47 236.48 200.866 236.48 202.587C236.48 204.309 237.876 205.705 239.597 205.705Z" fill="white"/>
<path d="M130.624 339.788L119.994 377.533H98.5981L94.6284 361.318L90.3223 377.533H69.5994L58.9688 339.788H77.8078L82.0466 363.808L87.4965 339.788H102.097L107.614 363.808L111.785 339.788H130.624Z" fill="#A72180"/>
<path d="M175.481 358.694C175.481 361.744 174.987 364.525 174.001 367.037C173.014 369.504 171.556 371.612 169.627 373.362C167.698 375.111 165.321 376.479 162.495 377.466C159.669 378.408 156.417 378.879 152.739 378.879C149.061 378.879 145.787 378.408 142.916 377.466C140.09 376.479 137.713 375.111 135.784 373.362C133.855 371.612 132.398 369.504 131.411 367.037C130.424 364.525 129.931 361.744 129.931 358.694C129.931 355.644 130.424 352.886 131.411 350.419C132.398 347.907 133.855 345.776 135.784 344.027C137.713 342.233 140.09 340.864 142.916 339.922C145.787 338.936 149.061 338.442 152.739 338.442C156.417 338.442 159.669 338.936 162.495 339.922C165.321 340.864 167.698 342.233 169.627 344.027C171.556 345.776 173.014 347.907 174.001 350.419C174.987 352.886 175.481 355.644 175.481 358.694ZM152.739 365.422C154.444 365.422 155.722 364.817 156.574 363.606C157.427 362.35 157.853 360.713 157.853 358.694C157.853 356.631 157.427 354.994 156.574 353.783C155.722 352.527 154.444 351.899 152.739 351.899C150.99 351.899 149.689 352.527 148.837 353.783C147.985 354.994 147.559 356.631 147.559 358.694C147.559 360.713 147.985 362.35 148.837 363.606C149.689 364.817 150.99 365.422 152.739 365.422Z" fill="#A72180"/>
<path d="M234.793 338.442C239.368 338.442 242.665 339.99 244.683 343.085C246.747 346.135 247.778 350.8 247.778 357.079V377.533H230.218V359.838C230.218 358.223 230.105 356.9 229.881 355.868C229.657 354.837 229.343 354.052 228.939 353.514C228.58 352.93 228.132 352.527 227.594 352.302C227.1 352.078 226.562 351.966 225.979 351.966C225.306 351.966 224.723 352.123 224.229 352.437C223.781 352.706 223.4 353.065 223.086 353.514C222.817 353.917 222.592 354.343 222.413 354.792C222.278 355.24 222.189 355.622 222.144 355.936V377.533H204.516V359.838C204.516 358.223 204.404 356.9 204.179 355.868C203.955 354.837 203.641 354.052 203.237 353.514C202.879 352.93 202.43 352.527 201.892 352.302C201.398 352.078 200.86 351.966 200.277 351.966C199.425 351.966 198.752 352.19 198.258 352.639C197.765 353.087 197.361 353.603 197.047 354.186C196.733 354.859 196.509 355.599 196.375 356.407V377.533H178.881V339.788L196.375 337.769V345.911C196.958 344.969 197.631 344.049 198.393 343.152C199.156 342.255 200.053 341.47 201.084 340.797C202.161 340.079 203.35 339.519 204.65 339.115C205.951 338.667 207.431 338.442 209.091 338.442C212.32 338.442 214.9 339.227 216.828 340.797C218.802 342.322 220.215 344.632 221.067 347.727C221.605 346.606 222.256 345.507 223.018 344.43C223.781 343.309 224.723 342.322 225.844 341.47C226.966 340.573 228.244 339.855 229.679 339.317C231.16 338.734 232.864 338.442 234.793 338.442Z" fill="#A72180"/>
<path d="M307.726 338.442C312.301 338.442 315.598 339.99 317.616 343.085C319.68 346.135 320.711 350.8 320.711 357.079V377.533H303.151V359.838C303.151 358.223 303.038 356.9 302.814 355.868C302.59 354.837 302.276 354.052 301.872 353.514C301.513 352.93 301.065 352.527 300.527 352.302C300.033 352.078 299.495 351.966 298.912 351.966C298.239 351.966 297.656 352.123 297.163 352.437C296.714 352.706 296.333 353.065 296.019 353.514C295.75 353.917 295.525 354.343 295.346 354.792C295.211 355.24 295.122 355.622 295.077 355.936V377.533H277.449V359.838C277.449 358.223 277.337 356.9 277.112 355.868C276.888 354.837 276.574 354.052 276.17 353.514C275.812 352.93 275.363 352.527 274.825 352.302C274.331 352.078 273.793 351.966 273.21 351.966C272.358 351.966 271.685 352.19 271.192 352.639C270.698 353.087 270.294 353.603 269.98 354.186C269.666 354.859 269.442 355.599 269.308 356.407V377.533H251.814V339.788L269.308 337.769V345.911C269.891 344.969 270.564 344.049 271.326 343.152C272.089 342.255 272.986 341.47 274.017 340.797C275.094 340.079 276.283 339.519 277.583 339.115C278.884 338.667 280.364 338.442 282.024 338.442C285.254 338.442 287.833 339.227 289.761 340.797C291.735 342.322 293.148 344.632 294 347.727C294.538 346.606 295.189 345.507 295.951 344.43C296.714 343.309 297.656 342.322 298.777 341.47C299.899 340.573 301.177 339.855 302.612 339.317C304.093 338.734 305.797 338.442 307.726 338.442Z" fill="#A72180"/>
<path d="M324.747 339.788L342.241 337.769V377.533H324.747V339.788ZM333.494 314.49C334.929 314.49 336.253 314.759 337.464 315.297C338.72 315.835 339.796 316.575 340.693 317.517C341.635 318.459 342.375 319.558 342.913 320.814C343.452 322.025 343.721 323.349 343.721 324.784C343.721 326.174 343.452 327.498 342.913 328.754C342.375 330.01 341.635 331.108 340.693 332.05C339.796 332.992 338.72 333.733 337.464 334.271C336.253 334.809 334.929 335.078 333.494 335.078C332.059 335.078 330.713 334.809 329.457 334.271C328.201 333.733 327.102 332.992 326.16 332.05C325.263 331.108 324.545 330.01 324.007 328.754C323.469 327.498 323.2 326.174 323.2 324.784C323.2 323.349 323.469 322.025 324.007 320.814C324.545 319.558 325.263 318.459 326.16 317.517C327.102 316.575 328.201 315.835 329.457 315.297C330.713 314.759 332.059 314.49 333.494 314.49Z" fill="#A72180"/>
</svg>
